HIERARCHY
ROOT hip
{
	OFFSET 0.000000 0.000000 0.000000 
	CHANNELS 6 Xposition Yposition Zposition Xrotation Zrotation Yrotation
	JOINT abdomen
	{
		OFFSET 0.000000 3.402643 0.000000 
		CHANNELS 3 Xrotation Zrotation Yrotation
		JOINT chest
		{
			OFFSET 0.000000 8.438565 -0.680529 
			CHANNELS 3 Xrotation Zrotation Yrotation
			JOINT neck
			{
				OFFSET 0.000000 10.207942 -0.272212 
				CHANNELS 3 Xrotation Zrotation Yrotation
				JOINT head
				{
					OFFSET 0.000000 3.130431 0.000000 
					CHANNELS 3 Xrotation Zrotation Yrotation
					End Site
					{
						OFFSET 0.000000 3.130435 0.000000 
					}
				}
			}
			JOINT lCollar
			{
				OFFSET 3.470700 6.669187 -0.816635 
				CHANNELS 3 Yrotation Zrotation Xrotation
				JOINT lShldr
				{
					OFFSET 3.198488 0.000000 0.000000 
					CHANNELS 3 Zrotation Yrotation Xrotation
					JOINT lForeArm
					{
						OFFSET 10.139888 0.000000 0.000000 
						CHANNELS 3 Yrotation Zrotation Xrotation
						JOINT lHand
						{
							OFFSET 8.370511 0.000000 0.000000 
							CHANNELS 3 Zrotation Yrotation Xrotation
							End Site
							{
								OFFSET 4.083176 0.000000 0.000000 
							}
						}
					}
				}
			}
			JOINT rCollar
			{
				OFFSET -3.470700 6.669187 -0.816635 
				CHANNELS 3 Yrotation Zrotation Xrotation
				JOINT rShldr
				{
					OFFSET -3.198488 0.000000 0.000000 
					CHANNELS 3 Zrotation Yrotation Xrotation
					JOINT rForeArm
					{
						OFFSET -10.139888 0.000000 0.000000 
						CHANNELS 3 Yrotation Zrotation Xrotation
						JOINT rHand
						{
							OFFSET -8.370511 0.000000 0.000000 
							CHANNELS 3 Zrotation Yrotation Xrotation
							End Site
							{
								OFFSET -4.083176 0.000000 0.000000 
							}
						}
					}
				}
			}
		}
	}
	JOINT lThigh
	{
		OFFSET 5.308129 -1.633274 1.361059 
		CHANNELS 3 Xrotation Zrotation Yrotation
		JOINT lShin
		{
			OFFSET -2.041588 -20.007561 0.000000 
			CHANNELS 3 Xrotation Zrotation Yrotation
			JOINT lFoot
			{
				OFFSET 0.000000 -19.190928 -1.224953 
				CHANNELS 3 Xrotation Yrotation Zrotation
				End Site
				{
					OFFSET 0.000000 -2.449906 4.627600 
				}
			}
		}
	}
	JOINT rThigh
	{
		OFFSET -5.308129 -1.633274 1.361059 
		CHANNELS 3 Xrotation Zrotation Yrotation
		JOINT rShin
		{
			OFFSET 2.041588 -20.007561 0.000000 
			CHANNELS 3 Xrotation Zrotation Yrotation
			JOINT rFoot
			{
				OFFSET 0.000000 -19.190928 -1.224953 
				CHANNELS 3 Xrotation Yrotation Zrotation
				End Site
				{
					OFFSET 0.000000 -2.449906 4.627600 
				}
			}
		}
	}
}
MOTION
Frames: 16
Frame Time: 0.033333
-0.367774 49.046898 2.353505 1.546502 -0.180592 -13.271570 0.000000 0.000000 0.000000 4.316536 0.853794 6.534075 8.702911 -0.927733 -0.107566 -7.298851 -0.822075 -11.807929 14.576198 20.101963 19.021130 -90.812386 -6.168194 -9.982273 -49.169331 -7.430643 98.147842 -85.263222 -3.564188 27.914265 -10.269670 -16.444231 21.374811 76.277611 28.122021 70.189003 24.252613 -36.427097 -7.258776 -35.155228 -4.432137 -27.018425 12.707498 6.268154 19.018270 54.376804 1.757687 -1.968670 7.219124 1.829789 -21.000971 -1.405049 2.663717 1.990018 15.393793 1.217400 0.681627 -9.377935 -3.589905 17.202293 
-0.671398 49.099846 2.310277 1.242081 -0.750758 -13.311814 0.000000 0.000000 0.000000 5.049124 1.105986 6.563911 8.469307 -1.132810 -0.127121 -7.532929 -0.602749 -11.563187 14.762704 19.863247 19.008326 -90.464935 -7.104147 -10.129114 -49.273563 -7.529087 97.960892 -84.781731 -3.370560 27.570999 -9.885368 -17.129431 21.359150 76.778214 28.197273 70.448418 24.891491 -36.299648 -6.665106 -34.141331 -4.456985 -26.361595 7.624794 7.977588 19.818888 61.896976 3.806677 -1.781908 11.191398 2.804503 -20.224577 1.249451 3.592019 2.174161 15.060776 0.954218 0.606054 -10.773186 -3.828904 17.003984 
-0.894903 49.161152 2.201450 0.629292 -0.949360 -13.556675 0.000000 0.000000 0.000000 6.068764 0.979980 6.504955 8.402806 -1.601557 -0.156462 -7.646327 -0.201293 -11.025494 15.399722 19.257942 18.923622 -89.961189 -8.127745 -10.357088 -49.929844 -7.596790 97.855957 -83.290710 -2.687095 26.187233 -8.998347 -17.877939 21.508356 77.014214 28.674889 70.479187 25.424627 -35.906162 -5.730809 -32.365963 -4.737833 -25.249727 2.779437 8.734850 20.157499 67.014587 5.377690 -1.614685 11.749840 4.396022 -19.988480 4.030266 3.893788 2.199463 14.610932 0.798123 0.548301 -11.717167 -3.729563 17.324686 
-1.034661 49.215004 2.034808 0.449763 -0.758765 -13.780650 0.000000 0.000000 0.000000 6.561699 0.601688 6.406613 8.454359 -2.080066 -0.195538 -7.612336 0.182366 -10.625039 16.020416 18.770767 18.820782 -89.737503 -8.897621 -10.441281 -51.242775 -7.622022 97.398338 -80.502090 -1.048381 23.508326 -8.182826 -18.868702 21.619545 77.386749 29.091736 70.594902 26.006525 -35.505058 -4.556193 -29.663588 -5.408161 -23.660353 -2.099740 8.798872 20.075409 69.263390 6.282056 -1.475401 10.525414 6.228625 -20.128256 6.030449 3.766830 2.124874 14.448864 0.739871 0.505303 -12.790568 -3.660605 17.615196 
-1.100264 49.280464 1.848471 0.398426 -0.265254 -14.052897 0.000000 0.000000 0.000000 6.797942 0.009707 6.269533 8.545950 -2.636697 -0.235025 -7.530310 0.442193 -10.146783 16.563770 18.263409 18.764324 -89.562088 -9.295031 -10.520500 -52.951599 -7.605285 95.206429 -75.330032 2.855409 19.331820 -7.592134 -20.166061 21.627998 78.140839 29.377283 70.941818 26.700676 -35.074657 -3.543648 -25.251104 -6.210009 -21.309759 -6.316879 8.257200 19.706976 68.146629 6.263295 -1.456836 8.805974 8.308541 -20.434649 7.576492 3.241714 1.937202 14.445659 0.788377 0.529954 -13.923514 -3.577056 17.776283 
-1.104432 49.372574 1.659893 0.078834 0.491870 -14.394996 0.000000 0.000000 0.000000 7.275580 -0.825432 6.064946 8.571651 -3.427693 -0.283864 -7.430178 0.693537 -9.473255 17.063068 17.438663 18.834312 -89.036690 -9.487891 -10.815159 -53.215031 -8.104525 86.141541 -64.080048 14.317184 14.286458 -7.074300 -21.426786 21.628504 78.886765 29.724257 71.270370 27.286366 -34.474766 -3.011337 -18.697779 -7.365342 -18.182186 -9.371959 7.299796 19.167833 63.916424 5.287565 -1.534043 6.856635 10.024033 -20.510883 9.334758 2.256024 1.611108 14.286078 0.991515 0.563797 -14.770740 -3.722083 18.239071 
-1.054025 49.461826 1.484216 -0.372857 1.464525 -14.643517 0.000000 0.000000 0.000000 7.779849 -1.855648 5.813497 8.590325 -4.208905 -0.352765 -7.361960 0.800752 -8.916777 17.312979 16.506102 19.016598 -88.346291 -9.681797 -11.191947 -48.627735 -11.763830 59.259739 -33.216114 37.036617 26.883675 -6.721407 -22.355623 21.642687 79.150681 29.968992 71.366371 27.964497 -33.770817 -2.375283 -11.205294 -9.054741 -15.075290 -11.333086 6.107703 18.625494 57.793755 3.920435 -1.648431 5.069709 10.690911 -20.227863 11.376914 0.917970 1.201057 13.774377 1.374449 0.588629 -15.506531 -4.162230 18.641378 
-1.005667 49.528790 1.327794 -0.746511 2.142104 -14.922616 0.000000 0.000000 0.000000 8.202764 -2.575377 5.640465 8.665982 -4.853403 -0.392529 -7.338465 0.753455 -8.447944 17.554806 15.578436 19.220417 -87.684830 -9.943035 -11.553053 -45.222977 -19.089012 29.721449 15.088015 34.181824 60.064423 -6.332323 -23.067007 21.699194 79.173271 30.080051 71.349091 28.554277 -33.250996 -0.572458 -2.179243 -11.009851 -12.061221 -12.289322 5.395068 18.306133 50.418911 2.175685 -1.691345 4.001877 10.379284 -19.998260 13.641498 -0.156572 0.884353 12.882911 1.707831 0.545908 -16.037926 -4.394126 19.245104 
-0.969330 49.562122 1.175317 -0.869610 2.231097 -15.431892 0.000000 0.000000 0.000000 8.479637 -2.653258 5.611194 8.742088 -5.439299 -0.432381 -7.343366 0.638564 -7.803117 18.025257 14.671730 19.364393 -87.128799 -10.300862 -11.838096 -45.417419 -22.157473 19.088911 31.135609 13.200921 60.528858 -5.732286 -23.658936 21.885101 79.020622 30.159756 71.258553 28.874294 -33.379112 3.219441 10.152657 -12.140834 -9.407127 -12.440969 5.517384 18.362892 41.964130 0.195512 -1.746415 3.667814 9.869851 -20.253803 15.902636 -0.497856 0.741977 11.840825 1.764859 0.475550 -16.493647 -4.486878 19.714270 
-0.921318 49.541729 1.052645 -0.757445 1.906749 -15.887753 0.000000 0.000000 0.000000 8.554420 -2.254443 5.697773 8.757645 -5.810359 -0.461570 -7.421656 0.600436 -7.392886 18.375198 14.019375 19.473238 -86.842331 -10.775781 -11.976239 -45.811611 -22.156574 18.233603 35.985374 -4.178315 50.404377 -5.315733 -24.121193 22.004444 78.830208 30.152342 71.148666 28.980572 -34.761410 11.184714 27.428801 -10.132629 -7.763165 -11.997536 5.854820 18.492064 33.308201 -1.491709 -1.665959 3.575033 10.072709 -20.829897 17.944099 -0.351293 0.749201 10.972825 1.755404 0.437817 -17.138994 -4.880413 19.646847 
-0.834774 49.466976 0.975767 -0.683086 1.434080 -16.303846 0.000000 0.000000 0.000000 8.712954 -1.709946 5.803143 8.603600 -5.956831 -0.472300 -7.422460 0.707379 -7.129445 18.389288 13.813021 19.525749 -86.966599 -10.932922 -11.881069 -46.378979 -21.629152 18.816780 39.948166 -17.089064 40.462173 -5.206058 -24.428867 22.016628 78.724312 30.365427 71.034477 29.407846 -37.602051 26.873913 48.924847 1.228107 -5.838935 -10.942155 6.068179 18.662762 25.228819 -2.823475 -1.501344 3.082827 10.885104 -21.325085 19.881691 -0.156607 0.836017 10.594467 1.718599 0.375682 -17.719910 -5.360367 20.035223 
-0.713386 49.331951 0.952930 -0.233907 0.803720 -16.866812 0.000000 0.000000 0.000000 8.425556 -0.854642 6.016263 8.449606 -6.103302 -0.482033 -7.352280 0.892141 -6.787805 18.524689 13.793582 19.500057 -87.190903 -10.865317 -11.764459 -46.895393 -21.644167 19.511351 43.899834 -26.281443 32.044811 -4.965278 -24.751099 22.086483 78.836327 30.806086 71.000092 30.827055 -39.349533 45.526360 67.684280 19.495384 2.216039 -10.085382 6.539634 18.854698 18.671892 -3.753173 -1.262005 2.554168 11.221383 -21.864429 21.221703 0.205020 0.927297 10.906747 1.472553 0.373383 -18.168816 -5.678255 21.130087 
-0.565794 49.167477 1.011113 0.190660 0.139809 -17.363323 0.000000 0.000000 0.000000 8.062989 0.058249 6.220710 8.382963 -6.181415 -0.491751 -7.350547 1.164218 -6.553955 18.872618 13.752334 19.415022 -87.297798 -10.869496 -11.704268 -47.161434 -22.137909 20.505545 47.210613 -32.580284 25.561813 -4.590518 -25.139360 22.217176 79.012589 30.877977 71.077423 31.591209 -38.370037 55.865261 80.354729 31.051538 14.174432 -9.341817 7.005670 19.102108 14.780529 -4.082398 -1.096281 2.086306 10.260672 -21.746134 22.429749 0.507423 1.021440 11.821795 1.220396 0.369627 -18.514366 -6.065781 22.817680 
-0.396394 49.011555 1.160611 0.399711 -0.362602 -17.812874 0.000000 0.000000 0.000000 7.751970 0.766681 6.397086 8.395162 -6.337651 -0.501471 -7.317111 1.504247 -6.398629 19.409483 13.559134 19.326553 -87.287071 -10.965513 -11.700894 -47.166164 -22.767078 21.548481 49.423485 -36.524124 21.323034 -4.140753 -25.525661 22.377708 79.109268 30.039339 71.326164 31.771374 -36.978455 58.716152 86.398209 35.550945 22.924080 -8.560948 7.249687 19.210335 13.687551 -4.102037 -1.016867 1.978089 8.881779 -21.263849 23.489246 0.527325 1.003484 13.416075 0.866696 0.451853 -18.676603 -6.466664 24.716276 
-0.164947 48.867146 1.385327 0.609797 -0.250448 -18.222858 0.000000 0.000000 0.000000 7.128150 0.941242 6.465732 8.438895 -6.611057 -0.522007 -7.101547 1.835137 -6.135910 19.965788 13.237103 19.275490 -87.208603 -11.026761 -11.738992 -47.021919 -23.347172 22.425373 50.940964 -38.805206 18.648655 -3.775740 -26.005146 22.498972 79.316216 28.590141 71.781006 31.687071 -35.885197 57.843731 88.560318 36.941525 26.779890 -7.831376 6.805422 19.094376 13.852628 -4.026301 -1.001968 2.367224 8.142830 -18.500784 23.918018 -0.205303 0.785517 15.950173 0.556201 0.570248 -18.617413 -6.839018 26.624464 
0.124514 48.776081 1.649086 0.878776 0.610992 -18.565548 0.000000 0.000000 0.000000 6.161007 0.427029 6.377140 8.512768 -6.952818 -0.541434 -6.860877 1.991869 -5.755255 20.607801 12.809929 19.253183 -87.090393 -11.176510 -11.809149 -46.536598 -23.794249 23.382076 51.808743 -40.073906 17.133867 -3.394775 -26.579947 22.616606 79.764938 26.962395 72.404701 31.125719 -35.035740 55.176144 89.372772 37.287777 27.854939 -7.280443 5.568691 18.730467 14.642725 -3.879826 -1.034624 2.720330 7.603130 -15.518306 23.335392 -1.845589 0.325266 19.753670 0.537028 0.860308 -18.277416 -7.385252 28.118336 
